<?xml version="1.0" encoding="utf-8"?>
<svg xmlns="http://www.w3.org/2000/svg" version="1.0" width="1200.000000pt" height="1200.000000pt" viewBox="0 0 1200.000000 1200.000000" preserveAspectRatio="xMidYMid meet"><g transform="translate(0.000000,1200.000000) scale(0.100000,-0.100000)" fill="#000" stroke="none"><path d="M6130 10249 c-505 -28 -995 -153 -1448 -370 -545 -260 -1021 -643 -1393 -1119 -777 -994 -1017 -2288 -653 -3515 83 -279 254 -655 415 -912 592 -945 1561 -1599 2635 -1777 273 -46 345 -51 674 -50 334 0 422 8 710 60 960 175 1850 744 2430 1554 129 181 205 306 310 515 226 448 352 885 401 1396 15 159 15 527 0 694 -112 1228 -803 2331 -1865 2975 -654 397 -1442 592 -2216 549z m2727 -2214 c109 -41 165 -112 209 -261 14 -49 15 -66 4 -113 -15 -69 -53 -141 -97 -184 -18 -18 -33 -35 -33 -38 0 -4 12 -10 27 -13 77 -20 173 -129 193 -221 31 -137 -50 -304 -180 -369 -70 -36 -99 -43 -340 -81 l-225 -36 -22 26 c-12 14 -25 40 -28 58 -3 17 -19 120 -35 227 -17 107 -53 330 -80 495 -62 385 -64 399 -51 423 14 27 46 36 246 67 94 15 190 30 215 35 81 14 128 11 197 -15z m-1032 -168 c81 -29 133 -82 172 -177 43 -103 48 -136 29 -209 -17 -66 -73 -162 -106 -183 -29 -19 -25 -25 30 -49 54 -23 118 -86 148 -146 47 -91 33 -220 -33 -321 -42 -62 -96 -103 -174 -133 -80 -30 -507 -97 -529 -83 -24 16 -37 62 -57 194 -9 63 -40 264 -70 445 -97 597 -96 584 -48 604 42 16 514 89 548 84 17 -3 57 -14 90 -26z m-4509 -56 c14 -17 54 -44 90 -61 58 -27 67 -29 80 -15 24 24 32 18 39 -27 4 -24 13 -58 21 -76 18 -43 4 -77 -38 -96 -18 -8 -44 -23 -57 -34 l-24 -20 21 -6 c23 -8 27 -22 14 -44 -6 -9 -35 -1 -118 33 -60 26 -112 50 -117 54 -4 4 -1 15 6 25 12 16 18 15 97 -18 84 -36 103 -39 81 -12 -10 12 -8 17 9 26 11 6 18 15 15 20 -3 5 6 35 20 66 14 32 24 62 22 67 -2 6 -18 -26 -36 -69 -18 -43 -37 -83 -41 -88 -7 -7 -120 29 -120 39 0 2 14 35 31 75 17 40 28 75 25 78 -5 5 -22 -29 -59 -120 l-16 -37 -50 21 c-56 23 -60 29 -33 56 21 21 47 80 39 89 -4 3 -2 14 4 25 8 15 17 18 36 13 26 -6 26 -6 10 19 -16 23 -16 26 1 35 23 14 20 15 48 -18z m3449 -116 c141 -68 201 -167 245 -400 45 -239 54 -315 55 -435 0 -154 -20 -215 -99 -299 -68 -72 -141 -105 -282 -126 -112 -17 -145 -15 -225 11 -76 24 -138 83 -190 179 -70 129 -138 523 -126 725 9 159 70 261 191 320 128 62 331 74 431 25z m-898 -124 c6 -10 15 -47 19 -82 3 -35 12 -95 20 -132 8 -38 27 -168 44 -290 16 -122 38 -278 49 -347 33 -215 6 -299 -124 -384 -32 -20 -70 -30 -181 -48 -78 -11 -148 -19 -157 -15 -27 10 -46 50 -53 109 -12 106 -1 118 138 139 67 11 88 18 111 40 32 33 32 37 7 209 -12 74 -30 205 -41 290 -11 85 -31 220 -45 299 -28 168 -29 185 -10 200 18 15 88 29 156 30 44 1 58 -3 67 -18z m-2682 -29 c-6 -28 -4 -28 137 -87 79 -32 145 -60 146 -61 8 -6 -10 -44 -21 -44 -26 2 -311 127 -321 142 -16 26 11 78 41 78 22 0 24 -3 18 -28z m128 -578 c18 -9 33 -18 35 -19 7 -6 -11 -55 -19 -55 -5 0 -28 12 -52 27 -23 15 -58 28 -77 30 l-35 4 30 -25 c17 -14 54 -37 83 -52 50 -25 62 -44 44 -71 -5 -8 -13 -9 -22 -3 -23 15 -40 12 -40 -7 0 -9 -5 -45 -11 -80 -10 -57 -13 -63 -36 -63 -22 0 -24 3 -19 30 3 17 9 44 12 60 5 25 2 30 -14 30 -20 0 -32 -24 -32 -67 0 -18 -6 -23 -26 -23 -24 0 -25 1 -18 46 5 34 3 48 -7 55 -23 15 -26 11 -33 -41 -6 -45 -9 -50 -32 -50 -23 0 -24 2 -19 38 4 20 9 45 12 55 3 12 -2 17 -19 17 -50 0 -68 11 -68 41 0 16 1 29 3 29 1 0 54 -9 117 -20 163 -28 163 -28 105 24 -40 36 -48 47 -37 57 6 7 12 16 12 20 0 3 -40 12 -90 19 -71 10 -90 16 -90 29 1 39 13 43 99 28 76 -13 80 -13 66 2 -13 15 -13 19 2 33 14 15 21 13 80 -33 36 -27 79 -57 96 -65z m5943 -156 c3 -5 10 -37 15 -71 5 -34 12 -75 15 -92 9 -53 -10 -65 -135 -85 -62 -10 -115 -21 -118 -24 -3 -3 10 -103 30 -223 19 -120 42 -270 51 -333 21 -152 53 -358 61 -392 11 -44 -18 -63 -123 -78 -105 -15 -118 -10 -127 49 -3 20 -14 86 -25 146 -10 61 -21 138 -25 172 -3 35 -19 147 -36 250 -17 104 -34 217 -38 253 -10 77 -21 120 -30 120 -3 0 -59 -9 -125 -20 -65 -11 -122 -17 -127 -15 -11 8 -26 61 -39 144 -10 61 -10 75 2 87 9 9 99 28 229 49 529 87 531 87 545 63z m-1136 -178 c110 -30 221 -141 258 -256 34 -106 12 -129 -139 -141 l-76 -6 -34 64 c-44 83 -77 102 -171 96 -40 -3 -78 -11 -93 -21 -67 -44 -86 -142 -37 -188 37 -36 58 -43 259 -83 96 -19 188 -42 205 -51 18 -9 55 -40 83 -68 85 -85 114 -214 79 -350 -22 -87 -59 -148 -113 -189 -62 -48 -98 -62 -207 -82 -264 -50 -428 41 -504 278 -20 61 -21 70 -7 91 13 19 30 25 106 35 49 7 99 10 110 6 11 -3 28 -28 41 -59 39 -98 104 -134 204 -115 87 16 126 56 129 131 2 55 -22 94 -71 115 -20 9 -101 29 -180 45 -289 58 -393 142 -409 326 -19 224 86 366 304 412 98 21 210 25 263 10z m-846 -142 c14 -23 18 -46 75 -433 17 -115 44 -298 60 -405 54 -353 55 -368 42 -383 -7 -9 -50 -20 -106 -27 -112 -15 -121 -11 -130 58 -4 26 -26 169 -50 317 -24 149 -51 331 -60 405 -9 74 -25 189 -37 255 -32 188 -31 179 -11 197 10 9 49 21 88 26 107 15 113 14 129 -10z m-428 -52 c16 -12 23 -35 33 -111 17 -123 15 -127 -111 -144 -122 -16 -128 -18 -128 -45 0 -12 11 -87 24 -167 27 -158 61 -393 71 -479 3 -30 15 -113 27 -184 l21 -129 -20 -17 c-13 -10 -59 -22 -113 -30 -99 -14 -104 -12 -114 35 -19 90 -50 275 -56 340 -10 92 -34 254 -54 370 -8 44 -17 103 -20 130 -8 70 -17 115 -25 115 -3 0 -60 -9 -126 -20 -102 -16 -122 -17 -134 -5 -14 14 -40 135 -40 192 -1 30 3 33 42 44 23 6 188 35 367 64 179 29 327 53 330 54 3 0 15 -5 26 -13z m-3745 -183 l33 -68 6 60 c4 44 9 61 21 63 19 4 29 -24 29 -85 0 -32 4 -43 16 -43 13 0 14 9 9 55 -7 54 -7 55 19 55 25 0 26 -3 26 -50 0 -43 3 -50 20 -50 16 0 20 -7 20 -30 0 -19 -5 -30 -14 -30 -23 0 -26 -107 -4 -127 14 -12 15 -20 6 -37 -6 -11 -12 -23 -14 -25 -3 -3 -18 8 -34 24 l-30 29 0 -37 c0 -33 -3 -37 -25 -37 -23 0 -25 3 -25 53 0 55 -16 127 -28 127 -4 0 -6 -33 -4 -74 l4 -73 -38 -6 c-22 -4 -67 -7 -101 -7 l-62 0 6 89 c4 67 2 100 -10 136 -9 26 -14 51 -11 56 3 5 32 9 64 9 32 0 61 3 64 8 2 4 -2 18 -9 32 -12 23 -11 26 8 37 12 7 23 12 24 13 0 0 16 -30 34 -67z m2703 -32 c77 -37 109 -75 151 -179 36 -88 45 -204 20 -287 -13 -45 -29 -71 -73 -118 -31 -32 -76 -70 -99 -84 -24 -14 -43 -27 -43 -29 0 -7 52 -85 108 -162 69 -94 89 -107 172 -107 l65 0 18 -38 c11 -20 19 -58 20 -83 1 -69 -26 -90 -135 -105 l-86 -13 -66 33 c-79 38 -128 92 -211 228 -95 157 -124 193 -158 193 -29 0 -29 -1 -24 -42 3 -24 15 -110 26 -193 11 -82 25 -171 31 -196 14 -55 3 -86 -33 -93 -184 -39 -198 -34 -212 79 -8 60 -49 319 -109 690 -64 391 -65 396 -54 427 5 15 19 30 31 34 12 4 123 24 247 45 268 46 318 46 414 0z m-1272 -168 c13 -16 34 -44 45 -63 42 -71 310 -576 323 -610 8 -19 61 -126 117 -237 57 -112 103 -212 103 -222 0 -29 -30 -41 -131 -54 -75 -9 -91 -9 -103 3 -8 8 -37 60 -66 115 -29 55 -53 101 -54 102 -7 8 -372 -60 -378 -70 -4 -6 -8 -29 -8 -50 0 -68 -22 -176 -39 -191 -18 -16 -193 -49 -215 -40 -8 3 -16 15 -18 27 -6 30 90 693 143 992 6 33 17 104 24 159 9 72 18 104 32 118 16 16 99 37 189 47 5 0 22 -11 36 -26z m-1197 -522 c16 -55 20 -60 49 -63 27 -3 31 -7 34 -34 3 -29 1 -31 -22 -27 l-25 5 24 -78 c14 -44 25 -84 25 -90 0 -6 -61 -30 -136 -53 -134 -42 -137 -42 -156 -24 -10 10 -22 33 -27 50 -8 27 -6 32 15 42 21 9 24 8 30 -14 3 -14 11 -25 17 -25 18 0 181 51 190 59 6 6 -56 227 -66 238 -2 1 -59 -16 -127 -37 -68 -22 -127 -36 -131 -32 -4 4 -10 16 -13 28 -6 19 5 24 141 67 82 25 151 46 154 46 3 1 14 -26 24 -58z m-44 -142 c15 -46 24 -87 20 -90 -13 -13 -135 -49 -142 -42 -3 5 -12 29 -19 55 -7 27 -21 58 -32 70 -10 12 -17 28 -16 36 3 14 132 62 153 58 5 -2 22 -41 36 -87z m337 -504 c7 -14 12 -27 12 -29 0 -2 -21 -9 -47 -16 -53 -13 -163 -68 -163 -81 0 -5 11 -9 25 -9 18 0 25 -5 25 -20 0 -15 -7 -20 -29 -20 -15 0 -49 -3 -74 -6 -41 -6 -46 -4 -52 17 -6 19 -1 29 31 57 52 45 114 81 188 108 76 29 71 29 84 -1z m5515 -69 c21 -27 42 -65 62 -113 1 -2 43 11 94 28 51 17 94 29 97 26 3 -2 6 -17 7 -31 2 -26 -3 -29 -83 -55 l-85 -27 4 -117 3 -117 -30 0 -29 0 -5 103 c-4 70 -12 119 -27 158 -39 101 -39 101 -100 0 -49 -84 -55 -90 -74 -79 -12 6 -23 12 -25 13 -7 6 142 245 153 245 7 0 24 -15 38 -34z m-5523 -63 c16 -27 31 -52 33 -56 1 -5 19 1 39 13 l37 21 15 -29 c15 -28 14 -29 -20 -45 -40 -19 -40 -22 -14 -61 19 -30 19 -30 -2 -45 -22 -15 -23 -15 -54 36 -11 17 -14 17 -62 -9 -65 -36 -131 -38 -185 -5 l-38 23 19 24 c18 22 20 23 43 7 30 -21 81 -22 122 -1 59 30 60 32 26 91 -25 43 -29 57 -19 68 19 23 28 18 60 -32z m390 -428 c10 -12 8 -18 -11 -35 -13 -10 -20 -19 -15 -20 6 0 20 10 33 22 22 21 23 21 44 2 l21 -19 -26 -20 c-18 -14 -26 -29 -24 -46 3 -20 -1 -24 -24 -24 -31 0 -72 -34 -50 -42 6 -3 10 -9 6 -14 -3 -5 16 -34 42 -64 38 -45 49 -53 61 -43 12 9 5 20 -39 65 -49 50 -51 54 -35 70 16 16 19 15 51 -16 44 -42 66 -33 31 13 -23 30 -24 35 -10 46 13 11 20 9 43 -12 22 -21 30 -24 44 -15 14 9 21 8 35 -6 15 -15 16 -20 5 -38 -12 -19 -10 -24 13 -49 23 -24 24 -28 10 -40 -13 -11 -20 -9 -45 15 -23 22 -33 26 -42 17 -9 -9 -4 -20 22 -47 33 -34 33 -35 14 -49 -13 -10 -23 -11 -31 -4 -17 14 -37 0 -23 -17 14 -16 -11 -38 -34 -29 -10 4 -30 -6 -56 -30 -22 -20 -44 -36 -50 -36 -5 0 -24 13 -42 29 -30 28 -32 32 -19 52 10 17 10 24 2 27 -12 4 -14 34 -4 70 4 17 11 22 25 19 15 -4 17 -3 8 8 -6 7 -9 19 -8 26 7 29 -30 17 -80 -27 -43 -38 -55 -44 -67 -34 -24 20 -18 36 25 70 47 37 49 46 15 62 -29 13 -30 17 -11 43 13 18 14 18 46 -5 l32 -23 31 33 c32 33 26 36 -25 15 -11 -4 -20 0 -27 14 -10 18 -7 22 21 37 18 9 46 27 61 40 33 28 40 29 57 9z m4734 -15 c4 -4 5 -13 2 -18 -10 -16 -75 8 -69 25 6 15 49 10 67 -7z m-40 -50 c18 -17 -4 -29 -34 -18 -40 13 -42 43 -2 33 15 -3 31 -10 36 -15z m84 -15 c6 -5 -32 -83 -75 -153 l-46 -75 36 -34 c20 -18 43 -33 52 -33 8 0 49 36 91 80 43 44 80 80 83 80 3 0 15 -7 25 -15 18 -14 15 -19 -59 -100 -85 -94 -123 -120 -163 -110 -20 5 -219 183 -229 205 -2 3 6 16 17 30 l19 25 44 -44 45 -43 25 43 c14 24 38 70 53 101 25 52 30 57 53 51 14 -3 27 -7 29 -8z m-4183 -436 c19 -20 18 -20 -10 -44 -17 -14 -37 -27 -45 -30 -8 -3 -39 -46 -69 -95 -30 -49 -64 -101 -76 -116 -20 -25 -21 -25 -43 -7 l-22 18 46 69 c38 57 43 68 26 64 -19 -5 -32 8 -32 32 0 5 36 27 79 50 43 23 87 50 97 61 22 24 27 24 49 -2z m80 -52 c17 -13 17 -16 -13 -59 -17 -25 -28 -48 -25 -52 4 -3 35 -6 70 -6 35 0 63 -3 63 -7 0 -5 3 -19 7 -32 l6 -24 -95 8 -96 7 -29 -44 c-16 -23 -33 -48 -37 -55 -4 -8 9 -23 35 -40 l41 -27 24 29 c22 28 24 29 43 11 20 -18 20 -18 -6 -57 -34 -51 -61 -51 -140 3 -45 31 -63 49 -63 65 0 25 170 293 186 293 5 0 18 -6 29 -13z m3624 -92 c0 -11 -300 -205 -317 -205 -12 0 -27 38 -18 47 2 3 74 49 158 103 136 87 154 96 165 81 7 -9 12 -20 12 -26z m-774 -235 c7 -19 19 -34 26 -33 8 0 25 3 38 5 17 2 26 -3 32 -19 7 -19 3 -23 -27 -33 -30 -10 -34 -15 -27 -33 4 -12 8 -49 8 -83 0 -77 -28 -117 -113 -162 l-60 -32 -16 25 c-16 24 -16 25 31 49 75 38 98 68 97 127 -1 68 -11 75 -73 54 -28 -9 -53 -20 -56 -25 -3 -5 2 -27 11 -50 19 -46 17 -50 -21 -53 -24 -2 -29 3 -41 37 -8 22 -16 41 -17 43 -2 2 -18 -2 -36 -8 -27 -9 -35 -9 -42 2 -16 25 -9 37 25 49 l35 11 -15 41 c-8 23 -13 42 -12 44 2 1 15 5 31 9 24 7 29 4 43 -30 17 -40 23 -41 97 -10 l36 15 -14 41 c-18 51 -19 47 3 52 33 9 45 2 57 -33z m-2254 -11 c155 -52 188 -220 60 -306 -35 -24 -94 -30 -160 -17 -25 5 -31 11 -31 33 0 27 0 27 69 23 64 -4 70 -2 100 24 23 21 34 41 38 70 5 36 1 45 -27 77 -18 21 -35 37 -39 37 -4 0 -17 -20 -29 -45 -12 -24 -38 -63 -58 -85 -67 -74 -126 -89 -171 -44 -22 22 -25 32 -21 79 10 123 140 197 269 154z m741 -175 c-2 -25 1 -33 20 -37 30 -8 35 -1 15 21 -15 16 -15 19 5 31 18 11 24 9 49 -15 16 -15 29 -34 29 -41 0 -7 9 -13 20 -13 20 0 26 -16 12 -37 -5 -9 -26 -9 -77 -3 -39 5 -73 9 -77 10 -9 0 12 -59 23 -66 6 -3 26 6 45 21 34 26 36 26 55 9 27 -24 24 -30 -21 -56 -22 -13 -40 -27 -40 -32 0 -5 20 -28 44 -50 l44 -41 -26 -19 -25 -19 -41 44 c-23 24 -49 55 -57 69 l-17 25 -6 -50 c-10 -75 -15 -80 -77 -80 -52 0 -54 1 -57 28 -3 27 -2 28 32 21 29 -5 36 -3 36 9 0 8 3 22 6 30 4 12 -9 11 -71 -9 -42 -13 -80 -24 -84 -24 -13 0 -20 51 -7 54 6 2 44 12 84 23 65 18 72 19 73 4 2 -26 17 40 18 80 1 35 -1 37 -36 41 -21 3 -39 4 -41 3 -1 -1 9 -23 24 -48 l26 -47 -28 -10 c-15 -6 -28 -9 -29 -8 -1 2 -12 22 -24 46 -23 45 -21 61 7 63 9 1 4 4 -13 8 -22 4 -31 13 -33 30 l-4 24 80 -7 80 -7 7 31 c6 26 11 31 33 28 24 -3 27 -7 24 -34z m722 -5 c3 -17 6 -42 6 -56 0 -60 82 -158 154 -184 39 -14 42 -20 25 -51 -8 -15 -17 -18 -36 -13 -34 8 -106 58 -131 90 l-20 25 -12 -30 c-12 -30 -90 -109 -127 -128 -18 -10 -23 -8 -37 13 -16 24 -15 25 12 39 40 21 88 77 102 122 8 24 10 62 6 112 -5 57 -4 77 6 83 27 17 45 9 52 -22z"/><path d="M8537 7796 c-37 -7 -70 -15 -73 -19 -3 -3 -1 -30 6 -59 6 -29 15 -91 20 -137 5 -46 12 -86 15 -89 9 -9 208 25 253 43 48 20 67 53 66 116 -2 57 -33 112 -78 140 -36 22 -104 23 -209 5z"/><path d="M8633 7273 l-91 -15 4 -37 c3 -20 12 -75 21 -124 19 -103 22 -105 135 -87 151 25 202 70 195 169 -3 46 -9 59 -36 83 -37 33 -77 35 -228 11z"/><path d="M7515 7634 c-44 -8 -83 -18 -88 -23 -4 -4 -2 -32 3 -62 6 -30 15 -90 20 -133 5 -44 13 -83 18 -88 11 -11 221 26 261 46 41 22 65 75 56 125 -9 48 -43 107 -72 127 -35 22 -107 25 -198 8z"/><path d="M7700 7124 c-8 -2 -55 -10 -105 -17 l-90 -13 3 -45 c2 -24 7 -60 12 -79 8 -29 16 -84 19 -124 1 -11 152 0 206 15 22 6 57 28 77 49 32 31 38 44 38 79 0 51 -22 106 -48 120 -23 12 -91 21 -112 15z"/><path d="M3244 7685 c-8 -21 -13 -39 -10 -42 9 -9 24 7 34 37 16 44 -5 49 -24 5z"/><path d="M3362 7683 c-7 -12 -16 -33 -22 -47 -15 -41 8 -31 25 11 17 41 15 70 -3 36z"/><path d="M3391 7639 c-12 -30 -16 -49 -9 -47 15 5 49 86 39 93 -5 2 -18 -18 -30 -46z"/><path d="M3480 7600 c-14 -27 -9 -34 13 -17 11 8 14 17 8 26 -7 11 -11 9 -21 -9z"/><path d="M6500 7473 c-36 -7 -78 -40 -96 -75 -31 -59 -5 -354 48 -548 24 -90 38 -117 73 -150 23 -22 36 -25 93 -25 92 1 146 30 174 92 22 49 21 119 -1 288 -49 373 -105 452 -291 418z"/><path d="M3053 6095 c6 -89 11 -106 25 -89 14 16 -1 167 -17 172 -12 4 -13 -10 -8 -83z"/><path d="M2980 6138 c0 -76 13 -138 28 -138 12 0 14 10 8 53 -3 28 -6 67 -6 85 0 22 -5 32 -15 32 -10 0 -15 -10 -15 -32z"/><path d="M3200 6101 c0 -10 7 -24 15 -31 16 -13 18 -8 9 28 -8 27 -24 29 -24 3z"/><path d="M5450 5996 c-75 -13 -80 -23 -61 -111 6 -27 13 -77 16 -109 2 -33 9 -64 14 -69 13 -13 193 16 252 40 68 27 87 99 48 181 -39 80 -104 97 -269 68z"/><path d="M4462 5568 c-6 -46 -18 -126 -26 -178 -8 -52 -14 -95 -13 -96 5 -5 213 29 221 36 8 8 -152 319 -165 320 -3 0 -11 -37 -17 -82z"/><path d="M3196 5403 c-15 -4 -17 -11 -12 -36 9 -42 18 -50 49 -38 24 9 25 12 15 45 -11 36 -16 38 -52 29z"/><path d="M3954 3995 c-8 -36 -8 -48 3 -57 11 -9 20 -6 41 15 l27 27 -30 30 -30 30 -11 -45z"/><path d="M5142 3359 c-45 -23 -72 -61 -72 -104 0 -34 25 -42 58 -18 30 22 92 110 92 130 0 19 -29 16 -78 -8z"/></g></svg>


       <svg viewBox="0 0 316 316" xmlns="http://www.w3.org/2000/svg" {{ $attributes }}>
 <path d="M6130 10249 c-505 -28 -995 -153 -1448 -370 -545 -260 -1021 -643 -1393 -1119 -777 -994 -1017 -2288 -653 -3515 83 -279 254 -655 415 -912 592 -945 1561 -1599 2635 -1777 273 -46 345 -51 674 -50 334 0 422 8 710 60 960 175 1850 744 2430 1554 129 181 205 306 310 515 226 448 352 885 401 1396 15 159 15 527 0 694 -112 1228 -803 2331 -1865 2975 -654 397 -1442 592 -2216 549z m2727 -2214 c109 -41 165 -112 209 -261 14 -49 15 -66 4 -113 -15 -69 -53 -141 -97 -184 -18 -18 -33 -35 -33 -38 0 -4 12 -10 27 -13 77 -20 173 -129 193 -221 31 -137 -50 -304 -180 -369 -70 -36 -99 -43 -340 -81 l-225 -36 -22 26 c-12 14 -25 40 -28 58 -3 17 -19 120 -35 227 -17 107 -53 330 -80 495 -62 385 -64 399 -51 423 14 27 46 36 246 67 94 15 190 30 215 35 81 14 128 11 197 -15z m-1032 -168 c81 -29 133 -82 172 -177 43 -103 48 -136 29 -209 -17 -66 -73 -162 -106 -183 -29 -19 -25 -25 30 -49 54 -23 118 -86 148 -146 47 -91 33 -220 -33 -321 -42 -62 -96 -103 -174 -133 -80 -30 -507 -97 -529 -83 -24 16 -37 62 -57 194 -9 63 -40 264 -70 445 -97 597 -96 584 -48 604 42 16 514 89 548 84 17 -3 57 -14 90 -26z m-4509 -56 c14 -17 54 -44 90 -61 58 -27 67 -29 80 -15 24 24 32 18 39 -27 4 -24 13 -58 21 -76 18 -43 4 -77 -38 -96 -18 -8 -44 -23 -57 -34 l-24 -20 21 -6 c23 -8 27 -22 14 -44 -6 -9 -35 -1 -118 33 -60 26 -112 50 -117 54 -4 4 -1 15 6 25 12 16 18 15 97 -18 84 -36 103 -39 81 -12 -10 12 -8 17 9 26 11 6 18 15 15 20 -3 5 6 35 20 66 14 32 24 62 22 67 -2 6 -18 -26 -36 -69 -18 -43 -37 -83 -41 -88 -7 -7 -120 29 -120 39 0 2 14 35 31 75 17 40 28 75 25 78 -5 5 -22 -29 -59 -120 l-16 -37 -50 21 c-56 23 -60 29 -33 56 21 21 47 80 39 89 -4 3 -2 14 4 25 8 15 17 18 36 13 26 -6 26 -6 10 19 -16 23 -16 26 1 35 23 14 20 15 48 -18z m3449 -116 c141 -68 201 -167 245 -400 45 -239 54 -315 55 -435 0 -154 -20 -215 -99 -299 -68 -72 -141 -105 -282 -126 -112 -17 -145 -15 -225 11 -76 24 -138 83 -190 179 -70 129 -138 523 -126 725 9 159 70 261 191 320 128 62 331 74 431 25z m-898 -124 c6 -10 15 -47 19 -82 3 -35 12 -95 20 -132 8 -38 27 -168 44 -290 16 -122 38 -278 49 -347 33 -215 6 -299 -124 -384 -32 -20 -70 -30 -181 -48 -78 -11 -148 -19 -157 -15 -27 10 -46 50 -53 109 -12 106 -1 118 138 139 67 11 88 18 111 40 32 33 32 37 7 209 -12 74 -30 205 -41 290 -11 85 -31 220 -45 299 -28 168 -29 185 -10 200 18 15 88 29 156 30 44 1 58 -3 67 -18z m-2682 -29 c-6 -28 -4 -28 137 -87 79 -32 145 -60 146 -61 8 -6 -10 -44 -21 -44 -26 2 -311 127 -321 142 -16 26 11 78 41 78 22 0 24 -3 18 -28z m128 -578 c18 -9 33 -18 35 -19 7 -6 -11 -55 -19 -55 -5 0 -28 12 -52 27 -23 15 -58 28 -77 30 l-35 4 30 -25 c17 -14 54 -37 83 -52 50 -25 62 -44 44 -71 -5 -8 -13 -9 -22 -3 -23 15 -40 12 -40 -7 0 -9 -5 -45 -11 -80 -10 -57 -13 -63 -36 -63 -22 0 -24 3 -19 30 3 17 9 44 12 60 5 25 2 30 -14 30 -20 0 -32 -24 -32 -67 0 -18 -6 -23 -26 -23 -24 0 -25 1 -18 46 5 34 3 48 -7 55 -23 15 -26 11 -33 -41 -6 -45 -9 -50 -32 -50 -23 0 -24 2 -19 38 4 20 9 45 12 55 3 12 -2 17 -19 17 -50 0 -68 11 -68 41 0 16 1 29 3 29 1 0 54 -9 117 -20 163 -28 163 -28 105 24 -40 36 -48 47 -37 57 6 7 12 16 12 20 0 3 -40 12 -90 19 -71 10 -90 16 -90 29 1 39 13 43 99 28 76 -13 80 -13 66 2 -13 15 -13 19 2 33 14 15 21 13 80 -33 36 -27 79 -57 96 -65z m5943 -156 c3 -5 10 -37 15 -71 5 -34 12 -75 15 -92 9 -53 -10 -65 -135 -85 -62 -10 -115 -21 -118 -24 -3 -3 10 -103 30 -223 19 -120 42 -270 51 -333 21 -152 53 -358 61 -392 11 -44 -18 -63 -123 -78 -105 -15 -118 -10 -127 49 -3 20 -14 86 -25 146 -10 61 -21 138 -25 172 -3 35 -19 147 -36 250 -17 104 -34 217 -38 253 -10 77 -21 120 -30 120 -3 0 -59 -9 -125 -20 -65 -11 -122 -17 -127 -15 -11 8 -26 61 -39 144 -10 61 -10 75 2 87 9 9 99 28 229 49 529 87 531 87 545 63z m-1136 -178 c110 -30 221 -141 258 -256 34 -106 12 -129 -139 -141 l-76 -6 -34 64 c-44 83 -77 102 -171 96 -40 -3 -78 -11 -93 -21 -67 -44 -86 -142 -37 -188 37 -36 58 -43 259 -83 96 -19 188 -42 205 -51 18 -9 55 -40 83 -68 85 -85 114 -214 79 -350 -22 -87 -59 -148 -113 -189 -62 -48 -98 -62 -207 -82 -264 -50 -428 41 -504 278 -20 61 -21 70 -7 91 13 19 30 25 106 35 49 7 99 10 110 6 11 -3 28 -28 41 -59 39 -98 104 -134 204 -115 87 16 126 56 129 131 2 55 -22 94 -71 115 -20 9 -101 29 -180 45 -289 58 -393 142 -409 326 -19 224 86 366 304 412 98 21 210 25 263 10z m-846 -142 c14 -23 18 -46 75 -433 17 -115 44 -298 60 -405 54 -353 55 -368 42 -383 -7 -9 -50 -20 -106 -27 -112 -15 -121 -11 -130 58 -4 26 -26 169 -50 317 -24 149 -51 331 -60 405 -9 74 -25 189 -37 255 -32 188 -31 179 -11 197 10 9 49 21 88 26 107 15 113 14 129 -10z m-428 -52 c16 -12 23 -35 33 -111 17 -123 15 -127 -111 -144 -122 -16 -128 -18 -128 -45 0 -12 11 -87 24 -167 27 -158 61 -393 71 -479 3 -30 15 -113 27 -184 l21 -129 -20 -17 c-13 -10 -59 -22 -113 -30 -99 -14 -104 -12 -114 35 -19 90 -50 275 -56 340 -10 92 -34 254 -54 370 -8 44 -17 103 -20 130 -8 70 -17 115 -25 115 -3 0 -60 -9 -126 -20 -102 -16 -122 -17 -134 -5 -14 14 -40 135 -40 192 -1 30 3 33 42 44 23 6 188 35 367 64 179 29 327 53 330 54 3 0 15 -5 26 -13z m-3745 -183 l33 -68 6 60 c4 44 9 61 21 63 19 4 29 -24 29 -85 0 -32 4 -43 16 -43 13 0 14 9 9 55 -7 54 -7 55 19 55 25 0 26 -3 26 -50 0 -43 3 -50 20 -50 16 0 20 -7 20 -30 0 -19 -5 -30 -14 -30 -23 0 -26 -107 -4 -127 14 -12 15 -20 6 -37 -6 -11 -12 -23 -14 -25 -3 -3 -18 8 -34 24 l-30 29 0 -37 c0 -33 -3 -37 -25 -37 -23 0 -25 3 -25 53 0 55 -16 127 -28 127 -4 0 -6 -33 -4 -74 l4 -73 -38 -6 c-22 -4 -67 -7 -101 -7 l-62 0 6 89 c4 67 2 100 -10 136 -9 26 -14 51 -11 56 3 5 32 9 64 9 32 0 61 3 64 8 2 4 -2 18 -9 32 -12 23 -11 26 8 37 12 7 23 12 24 13 0 0 16 -30 34 -67z m2703 -32 c77 -37 109 -75 151 -179 36 -88 45 -204 20 -287 -13 -45 -29 -71 -73 -118 -31 -32 -76 -70 -99 -84 -24 -14 -43 -27 -43 -29 0 -7 52 -85 108 -162 69 -94 89 -107 172 -107 l65 0 18 -38 c11 -20 19 -58 20 -83 1 -69 -26 -90 -135 -105 l-86 -13 -66 33 c-79 38 -128 92 -211 228 -95 157 -124 193 -158 193 -29 0 -29 -1 -24 -42 3 -24 15 -110 26 -193 11 -82 25 -171 31 -196 14 -55 3 -86 -33 -93 -184 -39 -198 -34 -212 79 -8 60 -49 319 -109 690 -64 391 -65 396 -54 427 5 15 19 30 31 34 12 4 123 24 247 45 268 46 318 46 414 0z m-1272 -168 c13 -16 34 -44 45 -63 42 -71 310 -576 323 -610 8 -19 61 -126 117 -237 57 -112 103 -212 103 -222 0 -29 -30 -41 -131 -54 -75 -9 -91 -9 -103 3 -8 8 -37 60 -66 115 -29 55 -53 101 -54 102 -7 8 -372 -60 -378 -70 -4 -6 -8 -29 -8 -50 0 -68 -22 -176 -39 -191 -18 -16 -193 -49 -215 -40 -8 3 -16 15 -18 27 -6 30 90 693 143 992 6 33 17 104 24 159 9 72 18 104 32 118 16 16 99 37 189 47 5 0 22 -11 36 -26z m-1197 -522 c16 -55 20 -60 49 -63 27 -3 31 -7 34 -34 3 -29 1 -31 -22 -27 l-25 5 24 -78 c14 -44 25 -84 25 -90 0 -6 -61 -30 -136 -53 -134 -42 -137 -42 -156 -24 -10 10 -22 33 -27 50 -8 27 -6 32 15 42 21 9 24 8 30 -14 3 -14 11 -25 17 -25 18 0 181 51 190 59 6 6 -56 227 -66 238 -2 1 -59 -16 -127 -37 -68 -22 -127 -36 -131 -32 -4 4 -10 16 -13 28 -6 19 5 24 141 67 82 25 151 46 154 46 3 1 14 -26 24 -58z m-44 -142 c15 -46 24 -87 20 -90 -13 -13 -135 -49 -142 -42 -3 5 -12 29 -19 55 -7 27 -21 58 -32 70 -10 12 -17 28 -16 36 3 14 132 62 153 58 5 -2 22 -41 36 -87z m337 -504 c7 -14 12 -27 12 -29 0 -2 -21 -9 -47 -16 -53 -13 -163 -68 -163 -81 0 -5 11 -9 25 -9 18 0 25 -5 25 -20 0 -15 -7 -20 -29 -20 -15 0 -49 -3 -74 -6 -41 -6 -46 -4 -52 17 -6 19 -1 29 31 57 52 45 114 81 188 108 76 29 71 29 84 -1z m5515 -69 c21 -27 42 -65 62 -113 1 -2 43 11 94 28 51 17 94 29 97 26 3 -2 6 -17 7 -31 2 -26 -3 -29 -83 -55 l-85 -27 4 -117 3 -117 -30 0 -29 0 -5 103 c-4 70 -12 119 -27 158 -39 101 -39 101 -100 0 -49 -84 -55 -90 -74 -79 -12 6 -23 12 -25 13 -7 6 142 245 153 245 7 0 24 -15 38 -34z m-5523 -63 c16 -27 31 -52 33 -56 1 -5 19 1 39 13 l37 21 15 -29 c15 -28 14 -29 -20 -45 -40 -19 -40 -22 -14 -61 19 -30 19 -30 -2 -45 -22 -15 -23 -15 -54 36 -11 17 -14 17 -62 -9 -65 -36 -131 -38 -185 -5 l-38 23 19 24 c18 22 20 23 43 7 30 -21 81 -22 122 -1 59 30 60 32 26 91 -25 43 -29 57 -19 68 19 23 28 18 60 -32z m390 -428 c10 -12 8 -18 -11 -35 -13 -10 -20 -19 -15 -20 6 0 20 10 33 22 22 21 23 21 44 2 l21 -19 -26 -20 c-18 -14 -26 -29 -24 -46 3 -20 -1 -24 -24 -24 -31 0 -72 -34 -50 -42 6 -3 10 -9 6 -14 -3 -5 16 -34 42 -64 38 -45 49 -53 61 -43 12 9 5 20 -39 65 -49 50 -51 54 -35 70 16 16 19 15 51 -16 44 -42 66 -33 31 13 -23 30 -24 35 -10 46 13 11 20 9 43 -12 22 -21 30 -24 44 -15 14 9 21 8 35 -6 15 -15 16 -20 5 -38 -12 -19 -10 -24 13 -49 23 -24 24 -28 10 -40 -13 -11 -20 -9 -45 15 -23 22 -33 26 -42 17 -9 -9 -4 -20 22 -47 33 -34 33 -35 14 -49 -13 -10 -23 -11 -31 -4 -17 14 -37 0 -23 -17 14 -16 -11 -38 -34 -29 -10 4 -30 -6 -56 -30 -22 -20 -44 -36 -50 -36 -5 0 -24 13 -42 29 -30 28 -32 32 -19 52 10 17 10 24 2 27 -12 4 -14 34 -4 70 4 17 11 22 25 19 15 -4 17 -3 8 8 -6 7 -9 19 -8 26 7 29 -30 17 -80 -27 -43 -38 -55 -44 -67 -34 -24 20 -18 36 25 70 47 37 49 46 15 62 -29 13 -30 17 -11 43 13 18 14 18 46 -5 l32 -23 31 33 c32 33 26 36 -25 15 -11 -4 -20 0 -27 14 -10 18 -7 22 21 37 18 9 46 27 61 40 33 28 40 29 57 9z m4734 -15 c4 -4 5 -13 2 -18 -10 -16 -75 8 -69 25 6 15 49 10 67 -7z m-40 -50 c18 -17 -4 -29 -34 -18 -40 13 -42 43 -2 33 15 -3 31 -10 36 -15z m84 -15 c6 -5 -32 -83 -75 -153 l-46 -75 36 -34 c20 -18 43 -33 52 -33 8 0 49 36 91 80 43 44 80 80 83 80 3 0 15 -7 25 -15 18 -14 15 -19 -59 -100 -85 -94 -123 -120 -163 -110 -20 5 -219 183 -229 205 -2 3 6 16 17 30 l19 25 44 -44 45 -43 25 43 c14 24 38 70 53 101 25 52 30 57 53 51 14 -3 27 -7 29 -8z m-4183 -436 c19 -20 18 -20 -10 -44 -17 -14 -37 -27 -45 -30 -8 -3 -39 -46 -69 -95 -30 -49 -64 -101 -76 -116 -20 -25 -21 -25 -43 -7 l-22 18 46 69 c38 57 43 68 26 64 -19 -5 -32 8 -32 32 0 5 36 27 79 50 43 23 87 50 97 61 22 24 27 24 49 -2z m80 -52 c17 -13 17 -16 -13 -59 -17 -25 -28 -48 -25 -52 4 -3 35 -6 70 -6 35 0 63 -3 63 -7 0 -5 3 -19 7 -32 l6 -24 -95 8 -96 7 -29 -44 c-16 -23 -33 -48 -37 -55 -4 -8 9 -23 35 -40 l41 -27 24 29 c22 28 24 29 43 11 20 -18 20 -18 -6 -57 -34 -51 -61 -51 -140 3 -45 31 -63 49 -63 65 0 25 170 293 186 293 5 0 18 -6 29 -13z m3624 -92 c0 -11 -300 -205 -317 -205 -12 0 -27 38 -18 47 2 3 74 49 158 103 136 87 154 96 165 81 7 -9 12 -20 12 -26z m-774 -235 c7 -19 19 -34 26 -33 8 0 25 3 38 5 17 2 26 -3 32 -19 7 -19 3 -23 -27 -33 -30 -10 -34 -15 -27 -33 4 -12 8 -49 8 -83 0 -77 -28 -117 -113 -162 l-60 -32 -16 25 c-16 24 -16 25 31 49 75 38 98 68 97 127 -1 68 -11 75 -73 54 -28 -9 -53 -20 -56 -25 -3 -5 2 -27 11 -50 19 -46 17 -50 -21 -53 -24 -2 -29 3 -41 37 -8 22 -16 41 -17 43 -2 2 -18 -2 -36 -8 -27 -9 -35 -9 -42 2 -16 25 -9 37 25 49 l35 11 -15 41 c-8 23 -13 42 -12 44 2 1 15 5 31 9 24 7 29 4 43 -30 17 -40 23 -41 97 -10 l36 15 -14 41 c-18 51 -19 47 3 52 33 9 45 2 57 -33z m-2254 -11 c155 -52 188 -220 60 -306 -35 -24 -94 -30 -160 -17 -25 5 -31 11 -31 33 0 27 0 27 69 23 64 -4 70 -2 100 24 23 21 34 41 38 70 5 36 1 45 -27 77 -18 21 -35 37 -39 37 -4 0 -17 -20 -29 -45 -12 -24 -38 -63 -58 -85 -67 -74 -126 -89 -171 -44 -22 22 -25 32 -21 79 10 123 140 197 269 154z m741 -175 c-2 -25 1 -33 20 -37 30 -8 35 -1 15 21 -15 16 -15 19 5 31 18 11 24 9 49 -15 16 -15 29 -34 29 -41 0 -7 9 -13 20 -13 20 0 26 -16 12 -37 -5 -9 -26 -9 -77 -3 -39 5 -73 9 -77 10 -9 0 12 -59 23 -66 6 -3 26 6 45 21 34 26 36 26 55 9 27 -24 24 -30 -21 -56 -22 -13 -40 -27 -40 -32 0 -5 20 -28 44 -50 l44 -41 -26 -19 -25 -19 -41 44 c-23 24 -49 55 -57 69 l-17 25 -6 -50 c-10 -75 -15 -80 -77 -80 -52 0 -54 1 -57 28 -3 27 -2 28 32 21 29 -5 36 -3 36 9 0 8 3 22 6 30 4 12 -9 11 -71 -9 -42 -13 -80 -24 -84 -24 -13 0 -20 51 -7 54 6 2 44 12 84 23 65 18 72 19 73 4 2 -26 17 40 18 80 1 35 -1 37 -36 41 -21 3 -39 4 -41 3 -1 -1 9 -23 24 -48 l26 -47 -28 -10 c-15 -6 -28 -9 -29 -8 -1 2 -12 22 -24 46 -23 45 -21 61 7 63 9 1 4 4 -13 8 -22 4 -31 13 -33 30 l-4 24 80 -7 80 -7 7 31 c6 26 11 31 33 28 24 -3 27 -7 24 -34z m722 -5 c3 -17 6 -42 6 -56 0 -60 82 -158 154 -184 39 -14 42 -20 25 -51 -8 -15 -17 -18 -36 -13 -34 8 -106 58 -131 90 l-20 25 -12 -30 c-12 -30 -90 -109 -127 -128 -18 -10 -23 -8 -37 13 -16 24 -15 25 12 39 40 21 88 77 102 122 8 24 10 62 6 112 -5 57 -4 77 6 83 27 17 45 9 52 -22z"/><path d="M8537 7796 c-37 -7 -70 -15 -73 -19 -3 -3 -1 -30 6 -59 6 -29 15 -91 20 -137 5 -46 12 -86 15 -89 9 -9 208 25 253 43 48 20 67 53 66 116 -2 57 -33 112 -78 140 -36 22 -104 23 -209 5z"/><path d="M8633 7273 l-91 -15 4 -37 c3 -20 12 -75 21 -124 19 -103 22 -105 135 -87 151 25 202 70 195 169 -3 46 -9 59 -36 83 -37 33 -77 35 -228 11z"/><path d="M7515 7634 c-44 -8 -83 -18 -88 -23 -4 -4 -2 -32 3 -62 6 -30 15 -90 20 -133 5 -44 13 -83 18 -88 11 -11 221 26 261 46 41 22 65 75 56 125 -9 48 -43 107 -72 127 -35 22 -107 25 -198 8z"/><path d="M7700 7124 c-8 -2 -55 -10 -105 -17 l-90 -13 3 -45 c2 -24 7 -60 12 -79 8 -29 16 -84 19 -124 1 -11 152 0 206 15 22 6 57 28 77 49 32 31 38 44 38 79 0 51 -22 106 -48 120 -23 12 -91 21 -112 15z"/><path d="M3244 7685 c-8 -21 -13 -39 -10 -42 9 -9 24 7 34 37 16 44 -5 49 -24 5z"/><path d="M3362 7683 c-7 -12 -16 -33 -22 -47 -15 -41 8 -31 25 11 17 41 15 70 -3 36z"/><path d="M3391 7639 c-12 -30 -16 -49 -9 -47 15 5 49 86 39 93 -5 2 -18 -18 -30 -46z"/><path d="M3480 7600 c-14 -27 -9 -34 13 -17 11 8 14 17 8 26 -7 11 -11 9 -21 -9z"/><path d="M6500 7473 c-36 -7 -78 -40 -96 -75 -31 -59 -5 -354 48 -548 24 -90 38 -117 73 -150 23 -22 36 -25 93 -25 92 1 146 30 174 92 22 49 21 119 -1 288 -49 373 -105 452 -291 418z"/><path d="M3053 6095 c6 -89 11 -106 25 -89 14 16 -1 167 -17 172 -12 4 -13 -10 -8 -83z"/><path d="M2980 6138 c0 -76 13 -138 28 -138 12 0 14 10 8 53 -3 28 -6 67 -6 85 0 22 -5 32 -15 32 -10 0 -15 -10 -15 -32z"/><path d="M3200 6101 c0 -10 7 -24 15 -31 16 -13 18 -8 9 28 -8 27 -24 29 -24 3z"/><path d="M5450 5996 c-75 -13 -80 -23 -61 -111 6 -27 13 -77 16 -109 2 -33 9 -64 14 -69 13 -13 193 16 252 40 68 27 87 99 48 181 -39 80 -104 97 -269 68z"/><path d="M4462 5568 c-6 -46 -18 -126 -26 -178 -8 -52 -14 -95 -13 -96 5 -5 213 29 221 36 8 8 -152 319 -165 320 -3 0 -11 -37 -17 -82z"/><path d="M3196 5403 c-15 -4 -17 -11 -12 -36 9 -42 18 -50 49 -38 24 9 25 12 15 45 -11 36 -16 38 -52 29z"/><path d="M3954 3995 c-8 -36 -8 -48 3 -57 11 -9 20 -6 41 15 l27 27 -30 30 -30 30 -11 -45z"/><path d="M5142 3359 c-45 -23 -72 -61 -72 -104 0 -34 25 -42 58 -18 30 22 92 110 92 130 0 19 -29 16 -78 -8z"/>
</svg>